<?xml version="1.0" ?><svg enable-background="new 0 0 512 512" id="Layer_1" version="1.1" viewBox="0 0 512 512" xml:space="preserve" xmlns="http://www.w3.org/2000/svg" xmlns:xlink="http://www.w3.org/1999/xlink"><g><g><linearGradient gradientUnits="userSpaceOnUse" id="SVGID_1_" x1="0.0000038" x2="512" y1="256" y2="256"><stop offset="0" style="stop-color:#8DC63F"/><stop offset="1" style="stop-color:#76B83F"/></linearGradient><circle cx="256" cy="256" fill="url(#SVGID_1_)" r="256"/><linearGradient gradientUnits="userSpaceOnUse" id="SVGID_2_" x1="42.6666679" x2="469.3333435" y1="256.0005188" y2="256.0005188"><stop offset="0" style="stop-color:#76B83F"/><stop offset="1" style="stop-color:#8DC63F"/></linearGradient><path d="M256,469.3338623c-117.6314697,0-213.3333282-95.7018738-213.3333282-213.3333435    c0-117.6309204,95.7018585-213.333313,213.3333282-213.333313c117.6357422,0,213.3333435,95.7024002,213.3333435,213.333313    C469.3333435,373.6319885,373.6357422,469.3338623,256,469.3338623z" fill="url(#SVGID_2_)"/></g><g><rect height="10.0005646" opacity="0.3" transform="matrix(0.7070001 -0.7072134 0.7072134 0.7070001 -126.0949707 304.7529907)" width="9.9990559" x="299.743927" y="299.5538635"/><polygon opacity="0.3" points="215.2522736,186.6687927 205.2522736,186.6687927 205.2522736,205.247467 186.6682739,205.247467     186.6682739,215.247467 205.2522736,215.247467 205.2522736,233.8314667 215.2522736,233.8314667 215.2522736,215.247467     233.8342438,215.247467 233.8342438,205.247467 215.2522736,205.247467   "/><rect height="10.0005646" opacity="0.3" transform="matrix(0.7069734 -0.7072401 0.7072401 0.7069734 -136.8709869 330.7917786)" width="9.9986782" x="325.7597351" y="325.569458"/><polygon opacity="0.3" points="223.3919983,297.5375977 210.2517395,310.6794739 197.1103973,297.5375977     190.0400085,304.6074524 203.1813354,317.7498779 190.0400085,330.8922729 197.1103973,337.9621277 210.2517395,324.820282     223.3919983,337.9621277 230.4624023,330.8922729 217.3215942,317.7498779 230.4624023,304.6074524   "/><path d="M144,144v240h240V144H144z M210.2517395,359h-0.0005341    c-22.7818756,0-41.2496033-18.4677429-41.2496033-41.2501221c0-22.7818909,18.4677277-41.2496033,41.2496033-41.2496033h0.0005341    c22.7813263,0,41.249588,18.4677124,41.249588,41.2496033C251.5013275,340.5322571,233.0330658,359,210.2517395,359z     M210.2517395,251.5002594h-0.0005341c-22.7818756,0-41.2496033-18.4682617-41.2496033-41.2501221    S187.4693298,169,210.2512054,169h0.0005341c22.7813263,0,41.249588,18.4682617,41.249588,41.2501373    S233.0330658,251.5002594,210.2517395,251.5002594z M317.7514648,359h-0.0005188    c-22.7813416,0-41.2496033-18.4677429-41.2496033-41.2501221c0-22.7818909,18.4682617-41.2496033,41.2496033-41.2496033h0.0005188    c22.7814331,0,41.2501221,18.4677124,41.2501221,41.2496033C359.0015869,340.5322571,340.5328979,359,317.7514648,359z     M317.7514648,251.5002594h-0.0005188c-22.7813416,0-41.2496033-18.4682617-41.2496033-41.2501221S294.9696045,169,317.750946,169    h0.0005188c22.7814331,0,41.2501221,18.4682617,41.2501221,41.2501373S340.5328979,251.5002594,317.7514648,251.5002594z" opacity="0.3"/><rect height="9.998867" opacity="0.3" transform="matrix(0.7070801 -0.7071334 0.7071334 0.7070801 -131.5375519 317.8446655)" width="47.1651535" x="294.3006287" y="312.6943054"/><rect height="10" opacity="0.3" width="47.1653328" x="294.1685181" y="205.247467"/></g><g><rect fill="#FFFFFF" height="10.0005646" transform="matrix(0.7070001 -0.7072134 0.7072134 0.7070001 -122.7812653 296.7512817)" width="9.9990559" x="291.743927" y="291.5538635"/><polygon fill="#FFFFFF" points="207.2522736,178.6687927 197.2522736,178.6687927 197.2522736,197.247467 178.6682739,197.247467     178.6682739,207.247467 197.2522736,207.247467 197.2522736,225.8314667 207.2522736,225.8314667 207.2522736,207.247467     225.8342438,207.247467 225.8342438,197.247467 207.2522736,197.247467   "/><rect fill="#FFFFFF" height="10.0005646" transform="matrix(0.7069734 -0.7072401 0.7072401 0.7069734 -133.5572662 322.7896423)" width="9.9986782" x="317.7597351" y="317.569458"/><polygon fill="#FFFFFF" points="215.3919983,289.5375977 202.2517395,302.6794739 189.1103973,289.5375977     182.0400085,296.6074524 195.1813354,309.7498779 182.0400085,322.8922729 189.1103973,329.9621277 202.2517395,316.820282     215.3919983,329.9621277 222.4624023,322.8922729 209.3215942,309.7498779 222.4624023,296.6074524   "/><path d="M136,136v240h240V136H136z M202.2517395,351h-0.0005341    c-22.7818756,0-41.2496033-18.4677429-41.2496033-41.2501221c0-22.7818909,18.4677277-41.2496033,41.2496033-41.2496033h0.0005341    c22.7813263,0,41.249588,18.4677124,41.249588,41.2496033C243.5013275,332.5322571,225.0330658,351,202.2517395,351z     M202.2517395,243.5002594h-0.0005341c-22.7818756,0-41.2496033-18.4682617-41.2496033-41.2501221    S179.4693298,161,202.2512054,161h0.0005341c22.7813263,0,41.249588,18.4682617,41.249588,41.2501373    S225.0330658,243.5002594,202.2517395,243.5002594z M309.7514648,351h-0.0005188    c-22.7813416,0-41.2496033-18.4677429-41.2496033-41.2501221c0-22.7818909,18.4682617-41.2496033,41.2496033-41.2496033h0.0005188    c22.7814331,0,41.2501221,18.4677124,41.2501221,41.2496033C351.0015869,332.5322571,332.5328979,351,309.7514648,351z     M309.7514648,243.5002594h-0.0005188c-22.7813416,0-41.2496033-18.4682617-41.2496033-41.2501221S286.9696045,161,309.750946,161    h0.0005188c22.7814331,0,41.2501221,18.4682617,41.2501221,41.2501373S332.5328979,243.5002594,309.7514648,243.5002594z" fill="#FFFFFF"/><rect fill="#FFFFFF" height="9.998867" transform="matrix(0.7070801 -0.7071334 0.7071334 0.7070801 -128.2238464 309.8442383)" width="47.1651535" x="286.3006287" y="304.6943054"/><rect fill="#FFFFFF" height="10" width="47.1653328" x="286.1685181" y="197.247467"/></g></g></svg>