<?xml version="1.0" encoding="UTF-8"?>
<!DOCTYPE svg PUBLIC "-//W3C//DTD SVG 1.1//EN" "http://www.w3.org/Graphics/SVG/1.1/DTD/svg11.dtd">
<!-- Creator: CorelDRAW X6 -->
<svg xmlns="http://www.w3.org/2000/svg" xml:space="preserve" width="100%" height="100%" version="1.1" style="shape-rendering:geometricPrecision; text-rendering:geometricPrecision; image-rendering:optimizeQuality; fill-rule:evenodd; clip-rule:evenodd"
viewBox="0 0 500 500"
 xmlns:xlink="http://www.w3.org/1999/xlink">
 <defs>
  <style type="text/css">
   <![CDATA[
    .fil0 {fill:#1A1A1A}
   ]]>
  </style>
 </defs>
 <g id="Layer_x0020_1">
  <metadata id="CorelCorpID_0Corel-Layer"/>
  <path class="fil0" d="M90 475l90 0 0 -150c0,-11 9,-20 20,-20l90 0c11,0 20,9 20,20l0 150 100 0c17,0 30,-13 30,-30l0 -234 -178 -98c-3,-3 -7,-4 -12,-4 -5,0 -9,1 -13,4l-177 98 0 234c0,17 13,30 30,30zm306 -450l-40 0c-5,0 -10,4 -10,10l0 51 -86 -50c-6,-4 -14,-4 -20,0l-207 119c-9,6 -12,18 -7,28 6,9 18,12 27,7l187 -108c6,-3 14,-3 20,0l187 108c9,5 21,2 27,-7 5,-10 2,-22 -7,-28l-61 -34 0 -86c0,-6 -4,-10 -10,-10z"/>
 </g>
</svg>
